<svg width="28" height="28" viewBox="0 0 28 28" fill="none" xmlns="http://www.w3.org/2000/svg">
<g clip-path="url(#clip0_172_5)">
<path fill-rule="evenodd" clip-rule="evenodd" d="M3.04954 6.33033C3.182 6.01052 3.40633 5.73718 3.69416 5.54488C3.98199 5.35258 4.32038 5.24996 4.66654 5.25H16.3332C18.6538 5.25 20.8794 6.17187 22.5204 7.81282C24.1613 9.45376 25.0832 11.6794 25.0832 14C25.0832 16.3206 24.1613 18.5462 22.5204 20.1872C20.8794 21.8281 18.6538 22.75 16.3332 22.75H5.8332C5.36907 22.75 4.92395 22.5656 4.59577 22.2374C4.26758 21.9092 4.0832 21.4641 4.0832 21C4.0832 20.5359 4.26758 20.0908 4.59577 19.7626C4.92395 19.4344 5.36907 19.25 5.8332 19.25H16.3332C17.7256 19.25 19.0609 18.6969 20.0455 17.7123C21.0301 16.7277 21.5832 15.3924 21.5832 14C21.5832 12.6076 21.0301 11.2723 20.0455 10.2877C19.0609 9.30312 17.7256 8.75 16.3332 8.75H8.89104L9.9877 9.84667C10.3063 10.1769 10.4825 10.619 10.4783 11.0779C10.4741 11.5367 10.2899 11.9755 9.96524 12.2998C9.64062 12.6242 9.20161 12.808 8.74276 12.8118C8.28391 12.8155 7.84194 12.6389 7.51204 12.32L3.4287 8.23667C3.18415 7.99197 3.01761 7.68028 2.95013 7.34098C2.88264 7.00168 2.91723 6.64998 3.04954 6.33033Z" fill="white"/>
</g>
<defs>
<clipPath id="clip0_172_5">
<rect width="28" height="28" fill="white"/>
</clipPath>
</defs>
</svg>
